<?xml version="1.0" encoding="UTF-8" standalone="no"?>
<svg
   viewBox="0 0 30 30"
   width="30"
   height="30"
   version="1.1"
   id="svg1"
   sodipodi:docname="clock.svg"
   inkscape:version="1.3 (0e150ed6c4, 2023-07-21)"
   xmlns:inkscape="http://www.inkscape.org/namespaces/inkscape"
   xmlns:sodipodi="http://sodipodi.sourceforge.net/DTD/sodipodi-0.dtd"
   xmlns="http://www.w3.org/2000/svg"
   xmlns:svg="http://www.w3.org/2000/svg">
  <defs
     id="defs1" />
  <sodipodi:namedview
     id="namedview1"
     pagecolor="#ffffff"
     bordercolor="#000000"
     borderopacity="0.25"
     inkscape:showpageshadow="2"
     inkscape:pageopacity="0.0"
     inkscape:pagecheckerboard="0"
     inkscape:deskcolor="#d1d1d1"
     inkscape:zoom="33.9"
     inkscape:cx="14.985251"
     inkscape:cy="15"
     inkscape:window-width="2240"
     inkscape:window-height="1294"
     inkscape:window-x="-11"
     inkscape:window-y="-11"
     inkscape:window-maximized="1"
     inkscape:current-layer="svg1" />
  <path
     d="m 15.5,3.5 a 12,12 0 1 1 0,24 12,12 0 0 1 0,-24 z m -9.75,12 a 9.75,9.75 0 1 0 19.5,0 9.75,9.75 0 0 0 -19.5,0 z m 10.5,-4.875 v 4.488 l 3.042,1.218 a 1.125,1.125 0 0 1 -0.8355,2.088 l -3.75,-1.5 A 1.1265,1.1265 0 0 1 14,15.875 v -5.25 a 1.125,1.125 0 0 1 2.25,0 z"
     id="path1"
     style="stroke-width:1.5;fill:#ffffff" />
</svg>
