<svg
  xmlns="http://www.w3.org/2000/svg"
  xmlns:svg="http://www.w3.org/2000/svg"
  id="svg1"
  width="30"
  height="30"
  version="1.1"
  viewBox="0 0 30 30"
>
  <path
    id="path1"
    d="M 6.125,27.5 A 2.625,2.625 0 0 1 3.5,24.875 V 6.125 C 3.5,4.676 4.676,3.5 6.125,3.5 h 12.75 c 1.449,0 2.625,1.176 2.625,2.625 v 18.75 c 0,0.1275 -0.009,0.252 -0.027,0.375 h 3.402 a 0.375,0.375 0 0 0 0.375,-0.375 v -8.9475 a 0.375,0.375 0 0 0 -0.1665,-0.312 L 23.501,14.561 a 1.124932,1.124932 0 1 1 1.248,-1.872 l 1.5825,1.0545 C 27.062,14.231 27.5,15.05 27.5,15.9275 V 24.875 A 2.625,2.625 0 0 1 24.875,27.5 h -5.25 a 1.149,1.149 0 0 1 -0.2955,-0.039 c -0.1485,0.0255 -0.3,0.039 -0.4545,0.039 h -4.5 A 1.125,1.125 0 0 1 13.25,26.375 V 24.5 h -1.5 v 1.875 A 1.125,1.125 0 0 1 10.625,27.5 Z M 5.75,24.875 c 0,0.207 0.168,0.375 0.375,0.375 H 9.5 v -1.875 a 1.125,1.125 0 0 1 1.125,-1.125 h 3.75 a 1.125,1.125 0 0 1 1.125,1.125 v 1.875 h 3.375 A 0.375,0.375 0 0 0 19.25,24.875 V 6.125 A 0.375,0.375 0 0 0 18.875,5.75 H 6.125 A 0.375,0.375 0 0 0 5.75,6.125 Z M 9.125,12.5 h 0.75 a 1.125,1.125 0 0 1 0,2.25 h -0.75 a 1.125,1.125 0 0 1 0,-2.25 z M 8,9.125 A 1.125,1.125 0 0 1 9.125,8 h 0.75 a 1.125,1.125 0 0 1 0,2.25 H 9.125 A 1.125,1.125 0 0 1 8,9.125 Z m 6,4.5 A 1.125,1.125 0 0 1 15.125,12.5 h 0.75 a 1.125,1.125 0 0 1 0,2.25 h -0.75 A 1.125,1.125 0 0 1 14,13.625 Z M 15.125,8 h 0.75 a 1.125,1.125 0 0 1 0,2.25 h -0.75 a 1.125,1.125 0 0 1 0,-2.25 z M 8,18.125 A 1.125,1.125 0 0 1 9.125,17 h 0.75 a 1.125,1.125 0 0 1 0,2.25 H 9.125 A 1.125,1.125 0 0 1 8,18.125 Z M 15.125,17 h 0.75 a 1.125,1.125 0 0 1 0,2.25 h -0.75 a 1.125,1.125 0 0 1 0,-2.25 z"
    style="stroke-width: 1.5; fill: #fff"
  />
</svg>
