<?xml version="1.0" encoding="UTF-8" standalone="no"?>
<svg
   viewBox="0 0 30 30"
   width="30"
   height="30"
   version="1.1"
   id="svg1"
   sodipodi:docname="language.svg"
   inkscape:version="1.3 (0e150ed6c4, 2023-07-21)"
   xmlns:inkscape="http://www.inkscape.org/namespaces/inkscape"
   xmlns:sodipodi="http://sodipodi.sourceforge.net/DTD/sodipodi-0.dtd"
   xmlns="http://www.w3.org/2000/svg"
   xmlns:svg="http://www.w3.org/2000/svg">
  <defs
     id="defs1" />
  <sodipodi:namedview
     id="namedview1"
     pagecolor="#ffffff"
     bordercolor="#000000"
     borderopacity="0.25"
     inkscape:showpageshadow="2"
     inkscape:pageopacity="0.0"
     inkscape:pagecheckerboard="0"
     inkscape:deskcolor="#d1d1d1"
     showgrid="false"
     inkscape:zoom="6.88"
     inkscape:cx="14.97093"
     inkscape:cy="15.188953"
     inkscape:window-width="2240"
     inkscape:window-height="1294"
     inkscape:window-x="-11"
     inkscape:window-y="-11"
     inkscape:window-maximized="1"
     inkscape:current-layer="svg1" />
  <path
     d="m 6.125,4.0004792 h 12.75 c 1.449,0 2.625,1.176 2.625,2.625 v 8.2499998 a 2.625,2.625 0 0 1 -2.625,2.625 h -4.7835 l -3.861,3.8595 A 2.187,2.187 0 0 1 6.5,19.814979 v -2.3145 H 6.125 A 2.625,2.625 0 0 1 3.5,14.875479 V 6.6254792 c 0,-1.449 1.176,-2.625 2.625,-2.625 z m -0.375,2.625 v 8.2499998 c 0,0.207 0.168,0.375 0.375,0.375 h 1.5 a 1.125,1.125 0 0 1 1.125,1.125 v 3.285 l 4.08,-4.08 a 1.1235,1.1235 0 0 1 0.795,-0.33 h 5.25 a 0.375,0.375 0 0 0 0.375,-0.375 V 6.6254792 a 0.375,0.375 0 0 0 -0.375,-0.375 H 6.125 a 0.375,0.375 0 0 0 -0.375,0.375 z m 19.5,3 a 0.375,0.375 0 0 0 -0.375,-0.375 h -0.75 a 1.125,1.125 0 0 1 0,-2.25 h 0.75 c 1.449,0 2.625,1.176 2.625,2.625 v 8.2499998 a 2.625,2.625 0 0 1 -2.625,2.625 H 24.5 v 2.3145 a 2.187,2.187 0 0 1 -3.7305,1.545 l -3.4395,-3.4395 a 1.1235,1.1235 0 0 1 0.489,-1.9125 1.1235,1.1235 0 0 1 1.101,0.3225 l 3.33,3.33 v -3.285 a 1.125,1.125 0 0 1 1.125,-1.125 h 1.5 a 0.375,0.375 0 0 0 0.375,-0.375 z"
     id="path1"
     style="stroke-width:1.5;fill:#ffffff;fill-opacity:1" />
</svg>
