<svg
  xmlns="http://www.w3.org/2000/svg"
  xmlns:svg="http://www.w3.org/2000/svg"
  id="svg1"
  width="30"
  height="30"
  version="1.1"
  viewBox="0 0 30 30"
>
  <path
    id="path1"
    d="m 20.894995,20.378728 -5.302498,5.304 a 2.25,2.25 0 0 1 -3.183,0 l -5.3025005,-5.304 A 9.7501186,9.7501187 0 1 1 20.894995,6.5892291 a 9.75,9.75 0 0 1 0,13.7894989 z m -1.59,-12.1979995 v -0.0015 A 7.5009888,7.5009888 0 1 0 8.696997,18.787228 l 5.304,5.3025 5.303998,-5.301 a 7.5,7.5 0 0 0 0,-10.6079995 z m -5.303998,8.3039995 a 3,3 0 1 1 -0.0015,-5.9985 3,3 0 0 1 0.0015,5.9985 z"
    style="stroke-width: 1.5; fill: #fff"
  />
</svg>
