<?xml version="1.0" encoding="UTF-8" standalone="no"?>
<svg
   viewBox="0 0 30 30"
   width="30"
   height="30"
   version="1.1"
   id="svg1"
   sodipodi:docname="location.svg"
   inkscape:version="1.3 (0e150ed6c4, 2023-07-21)"
   xmlns:inkscape="http://www.inkscape.org/namespaces/inkscape"
   xmlns:sodipodi="http://sodipodi.sourceforge.net/DTD/sodipodi-0.dtd"
   xmlns="http://www.w3.org/2000/svg"
   xmlns:svg="http://www.w3.org/2000/svg">
  <defs
     id="defs1" />
  <sodipodi:namedview
     id="namedview1"
     pagecolor="#ffffff"
     bordercolor="#000000"
     borderopacity="0.25"
     inkscape:showpageshadow="2"
     inkscape:pageopacity="0.0"
     inkscape:pagecheckerboard="0"
     inkscape:deskcolor="#d1d1d1"
     inkscape:zoom="33.9"
     inkscape:cx="14.985251"
     inkscape:cy="15"
     inkscape:window-width="2240"
     inkscape:window-height="1294"
     inkscape:window-x="-11"
     inkscape:window-y="-11"
     inkscape:window-maximized="1"
     inkscape:current-layer="svg1" />
  <path
     d="m 20.894995,20.378728 -5.302498,5.304 a 2.25,2.25 0 0 1 -3.183,0 l -5.3025005,-5.304 A 9.7501186,9.7501187 0 1 1 20.894995,6.5892291 a 9.75,9.75 0 0 1 0,13.7894989 z m -1.59,-12.1979995 v -0.0015 A 7.5009888,7.5009888 0 1 0 8.696997,18.787228 l 5.304,5.3025 5.303998,-5.301 a 7.5,7.5 0 0 0 0,-10.6079995 z m -5.303998,8.3039995 a 3,3 0 1 1 -0.0015,-5.9985 3,3 0 0 1 0.0015,5.9985 z"
     id="path1"
     style="stroke-width:1.5;fill:#ffffff" />
</svg>
