<svg
  xmlns="http://www.w3.org/2000/svg"
  width="682.667"
  height="682.667"
  preserveAspectRatio="xMidYMid meet"
  version="1.0"
  viewBox="0 0 512 512"
>
  <g fill="#000" stroke="none">
    <path
      d="M2445 4194 c-472 -73 -879 -394 -1099 -866 -164 -351 -212 -775 -135 -1175 119 -616 582 -1097 1171 -1217 287 -59 693 -42 976 40 170 50 358 139 450 214 l31 25 45 329 c25 182 43 332 41 334 -8 8 -380 40 -387 33 -4 -3 -25 -103 -48 -221 -23 -118 -44 -223 -47 -233 -11 -40 -216 -105 -397 -127 -145 -17 -385 -15 -492 5 -487 89 -802 423 -891 945 -23 135 -22 402 1 545 66 404 296 731 619 880 258 119 660 123 946 10 97 -39 214 -99 228 -118 6 -6 29 -115 52 -242 24 -126 45 -232 47 -234 9 -9 394 33 394 43 0 6 -21 157 -46 336 -53 372 -32 325 -188 431 -213 145 -438 229 -699 264 -146 19 -447 18 -572 -1z"
      transform="translate(0.000000,512.000000) scale(0.100000,-0.100000)"
    />
  </g>
</svg>
