<?xml version="1.0" encoding="UTF-8" standalone="no"?>
<svg
   version="1.0"
   width="512.000000pt"
   height="512.000000pt"
   viewBox="0 0 512.000000 512.000000"
   preserveAspectRatio="xMidYMid meet"
   id="svg1"
   sodipodi:docname="logo1.svg"
   inkscape:version="1.3 (0e150ed6c4, 2023-07-21)"
   xmlns:inkscape="http://www.inkscape.org/namespaces/inkscape"
   xmlns:sodipodi="http://sodipodi.sourceforge.net/DTD/sodipodi-0.dtd"
   xmlns="http://www.w3.org/2000/svg"
   xmlns:svg="http://www.w3.org/2000/svg">
  <defs
     id="defs1" />
  <sodipodi:namedview
     id="namedview1"
     pagecolor="#ffffff"
     bordercolor="#000000"
     borderopacity="0.25"
     inkscape:showpageshadow="2"
     inkscape:pageopacity="0.0"
     inkscape:pagecheckerboard="0"
     inkscape:deskcolor="#d1d1d1"
     inkscape:document-units="pt"
     inkscape:zoom="1.4897461"
     inkscape:cx="341.66896"
     inkscape:cy="341.66896"
     inkscape:window-width="2240"
     inkscape:window-height="1294"
     inkscape:window-x="-11"
     inkscape:window-y="-11"
     inkscape:window-maximized="1"
     inkscape:current-layer="svg1" />
  <g
     transform="translate(0.000000,512.000000) scale(0.100000,-0.100000)"
     fill="#000000"
     stroke="none"
     id="g1">
    <path
       d="m 2386.2104,5013.566 c -708,-109.5 -1318.5,-591 -1648.50004,-1299 -246,-526.5 -318,-1162.5 -202.5,-1762.5 178.5,-924 873.00004,-1645.49996 1756.50004,-1825.49996 430.5,-88.500002 1039.5,-63.000002 1464,60 255,75 537,208.5 675,321 l 46.5,37.5 67.5,493.49996 c 37.5,273 64.5,498 61.5,501 -12,12 -570,60 -580.5,49.5 -6,-4.5 -37.5,-154.5 -72,-331.5 -34.5,-177 -66,-334.49996 -70.5,-349.49996 -16.5,-60 -324,-157.5 -595.5,-190.5 -217.5,-25.5 -577.5,-22.5 -738,7.5 -730.5,133.5 -1203,634.49996 -1336.5,1417.49996 -34.5,202.5 -33,603 1.5,817.5 99,606 444,1096.5 928.5,1320 387,178.5 990,184.5 1419,15 145.5,-58.5 321,-148.5 342,-177 9,-9 43.5,-172.5 78,-363 36,-189 67.5,-348 70.5,-351 13.5,-13.5 591,49.5 591,64.5 0,9 -31.5,235.5 -69,504 -79.5,558 -48,487.5 -282,646.5 -319.5,217.5 -657,343.5 -1048.5,396 -219,28.5 -670.5,27 -858,-1.5 z"
       id="path1"
       inkscape:label="path1"
       style="stroke-width:1.5" />
  </g>
</svg>
